<svg width="12" height="14" viewBox="0 0 12 14" fill="none" xmlns="http://www.w3.org/2000/svg">
<path fill-rule="evenodd" clip-rule="evenodd" d="M5.64183 0.706252C5.85248 0.542415 6.14744 0.542415 6.35809 0.706252L11.6081 4.78958C11.7502 4.9001 11.8333 5.07003 11.8333 5.25004V11.6667C11.8333 12.1308 11.6489 12.576 11.3207 12.9041C10.9925 13.2323 10.5474 13.4167 10.0833 13.4167H1.91663C1.4525 13.4167 1.00738 13.2323 0.679189 12.9041C0.351 12.576 0.166626 12.1308 0.166626 11.6667V5.25004C0.166626 5.07003 0.249735 4.9001 0.391827 4.78958L5.64183 0.706252ZM1.33329 5.53534V11.6667C1.33329 11.8214 1.39475 11.9698 1.50415 12.0792C1.61354 12.1886 1.76192 12.25 1.91663 12.25H10.0833C10.238 12.25 10.3864 12.1886 10.4958 12.0792C10.6052 11.9698 10.6666 11.8214 10.6666 11.6667V5.53534L5.99996 1.90571L1.33329 5.53534Z" fill="white"/>
<path fill-rule="evenodd" clip-rule="evenodd" d="M3.66663 7.00004C3.66663 6.67787 3.92779 6.41671 4.24996 6.41671H7.74996C8.07213 6.41671 8.33329 6.67787 8.33329 7.00004V12.8334C8.33329 13.1555 8.07213 13.4167 7.74996 13.4167C7.42779 13.4167 7.16663 13.1555 7.16663 12.8334V7.58337H4.83329V12.8334C4.83329 13.1555 4.57213 13.4167 4.24996 13.4167C3.92779 13.4167 3.66663 13.1555 3.66663 12.8334V7.00004Z" fill="white"/>
</svg>
